<svg width="25" height="24" viewBox="0 0 25 24" fill="none" xmlns="http://www.w3.org/2000/svg">
<path d="M19.2449 3.9893H17.2836V3.00867C17.2836 2.74859 17.1803 2.49917 16.9964 2.31526C16.8125 2.13136 16.5631 2.02805 16.303 2.02805C16.0429 2.02805 15.7935 2.13136 15.6096 2.31526C15.4257 2.49917 15.3224 2.74859 15.3224 3.00867V3.9893H9.4386V3.00867C9.4386 2.74859 9.33528 2.49917 9.15138 2.31526C8.96748 2.13136 8.71805 2.02805 8.45797 2.02805C8.19789 2.02805 7.94847 2.13136 7.76457 2.31526C7.58066 2.49917 7.47735 2.74859 7.47735 3.00867V3.9893H5.5161C4.73586 3.9893 3.98758 4.29924 3.43587 4.85095C2.88417 5.40266 2.57422 6.15094 2.57422 6.93117L2.57422 18.6987C2.57422 19.4789 2.88417 20.2272 3.43587 20.7789C3.98758 21.3306 4.73586 21.6406 5.5161 21.6406H19.2449C20.0251 21.6406 20.7734 21.3306 21.3251 20.7789C21.8768 20.2272 22.1867 19.4789 22.1867 18.6987V6.93117C22.1867 6.15094 21.8768 5.40266 21.3251 4.85095C20.7734 4.29924 20.0251 3.9893 19.2449 3.9893V3.9893ZM20.2255 18.6987C20.2255 18.9588 20.1222 19.2082 19.9383 19.3921C19.7544 19.576 19.5049 19.6793 19.2449 19.6793H5.5161C5.25602 19.6793 5.00659 19.576 4.82269 19.3921C4.63879 19.2082 4.53547 18.9588 4.53547 18.6987V11.8343H20.2255V18.6987ZM20.2255 9.87305H4.53547V6.93117C4.53547 6.6711 4.63879 6.42167 4.82269 6.23777C5.00659 6.05386 5.25602 5.95055 5.5161 5.95055H7.47735V6.93117C7.47735 7.19125 7.58066 7.44068 7.76457 7.62458C7.94847 7.80848 8.19789 7.9118 8.45797 7.9118C8.71805 7.9118 8.96748 7.80848 9.15138 7.62458C9.33528 7.44068 9.4386 7.19125 9.4386 6.93117V5.95055H15.3224V6.93117C15.3224 7.19125 15.4257 7.44068 15.6096 7.62458C15.7935 7.80848 16.0429 7.9118 16.303 7.9118C16.5631 7.9118 16.8125 7.80848 16.9964 7.62458C17.1803 7.44068 17.2836 7.19125 17.2836 6.93117V5.95055H19.2449C19.5049 5.95055 19.7544 6.05386 19.9383 6.23777C20.1222 6.42167 20.2255 6.6711 20.2255 6.93117V9.87305Z" fill="#828282"/>
</svg>
