<svg width="23" height="21" viewBox="0 0 23 21" fill="none" xmlns="http://www.w3.org/2000/svg">
<path d="M1.57422 3.94009C1.57422 3.41993 1.78085 2.92108 2.14866 2.55327C2.51646 2.18547 3.01531 1.97884 3.53547 1.97884H9.41922V19.6301H3.53547C3.01531 19.6301 2.51646 19.4235 2.14866 19.0557C1.78085 18.6879 1.57422 18.189 1.57422 17.6688L1.57422 3.94009ZM13.3417 1.97884H19.2255C19.7456 1.97884 20.2445 2.18547 20.6123 2.55327C20.9801 2.92108 21.1867 3.41993 21.1867 3.94009V8.84322H13.3417V1.97884ZM13.3417 12.7657H21.1867V17.6688C21.1867 18.189 20.9801 18.6879 20.6123 19.0557C20.2445 19.4235 19.7456 19.6301 19.2255 19.6301H13.3417V12.7657Z" stroke="#0000AC" stroke-width="2.45156" stroke-linecap="round" stroke-linejoin="round"/>
</svg>
