<svg width="25" height="24" viewBox="0 0 25 24" fill="none" xmlns="http://www.w3.org/2000/svg">
<path d="M2.57422 5.01614C2.57422 4.49598 2.78085 3.99713 3.14866 3.62932C3.51646 3.26152 4.01531 3.05489 4.53547 3.05489H10.4192V20.7061H4.53547C4.01531 20.7061 3.51646 20.4995 3.14866 20.1317C2.78085 19.7639 2.57422 19.2651 2.57422 18.7449V5.01614ZM14.3417 3.05489L20.2255 3.05489C20.7456 3.05489 21.2445 3.26152 21.6123 3.62932C21.9801 3.99713 22.1867 4.49598 22.1867 5.01614V9.91926H14.3417V3.05489ZM14.3417 13.8418H22.1867V18.7449C22.1867 19.2651 21.9801 19.7639 21.6123 20.1317C21.2445 20.4995 20.7456 20.7061 20.2255 20.7061H14.3417V13.8418Z" stroke="#828282" stroke-width="2.45156" stroke-linecap="round" stroke-linejoin="round"/>
</svg>
