<svg width="25" height="20" viewBox="0 0 25 20" fill="none" xmlns="http://www.w3.org/2000/svg">
<path d="M22.4137 19.8569H2.80117C2.15098 19.8569 1.52741 19.5986 1.06766 19.1389C0.607898 18.6791 0.349609 18.0555 0.349609 17.4053L0.349609 2.58931C0.377107 1.95777 0.647485 1.36127 1.1043 0.924327C1.56111 0.487387 2.16904 0.243788 2.80117 0.244386L22.4137 0.244386C23.0639 0.244386 23.6874 0.502675 24.1472 0.962432C24.607 1.42219 24.8653 2.04575 24.8653 2.69595V17.4053C24.8653 18.0555 24.607 18.6791 24.1472 19.1389C23.6874 19.5986 23.0639 19.8569 22.4137 19.8569ZM2.80117 4.98571L2.80117 17.4053H22.4137V4.98571L12.6074 11.5216L2.80117 4.98571ZM3.7818 2.69595L12.6074 8.5797L21.4331 2.69595L3.7818 2.69595Z" fill="#828282"/>
</svg>
