<svg width="25" height="24" viewBox="0 0 25 24" fill="none" xmlns="http://www.w3.org/2000/svg">
<g clip-path="url(#clip0_198_425)">
<path d="M11.3998 23.4112V19.881C6.48691 19.626 2.57422 15.5466 2.57422 10.5749C2.57422 5.43638 6.75168 1.25891 11.8902 1.25891C17.0286 1.25891 21.2061 5.43638 21.2061 10.5749C21.2061 15.429 17.8328 20.3125 12.8021 22.7346L11.3998 23.4112ZM11.8902 3.22016C7.83037 3.22016 4.53547 6.51506 4.53547 10.5749C4.53547 14.6346 7.83037 17.9295 11.8902 17.9295H13.3611V20.185C16.9306 17.9295 19.2449 14.2228 19.2449 10.5749C19.2449 6.51506 15.95 3.22016 11.8902 3.22016ZM10.9095 14.4974H12.8708V16.4586H10.9095V14.4974ZM12.8708 13.0264H10.9095C10.9095 9.83938 13.8514 10.0845 13.8514 8.12329C13.8514 7.0446 12.9689 6.16204 11.8902 6.16204C10.8115 6.16204 9.92891 7.0446 9.92891 8.12329H7.96766C7.96766 5.95611 9.72298 4.20079 11.8902 4.20079C14.0573 4.20079 15.8127 5.95611 15.8127 8.12329C15.8127 10.5749 12.8708 10.82 12.8708 13.0264Z" fill="#828282"/>
</g>
<defs>
<clipPath id="clip0_198_425">
<rect width="23.535" height="23.535" fill="white" transform="translate(0.612305 0.27829)"/>
</clipPath>
</defs>
</svg>
