<svg width="50" height="50" viewBox="0 0 50 50" fill="none" xmlns="http://www.w3.org/2000/svg">
<rect x="1.22566" y="1.02197" width="48.0507" height="48.0507" rx="4.41282" stroke="#E0E0E0" stroke-width="0.980626"/>
<g clip-path="url(#clip0_102_8660)">
<path d="M25.2518 11.9728C22.6658 11.9728 20.1379 12.7396 17.9877 14.1763C15.8375 15.613 14.1617 17.655 13.172 20.0442C12.1824 22.4333 11.9235 25.0623 12.428 27.5986C12.9325 30.1349 14.1778 32.4646 16.0063 34.2932C17.8349 36.1218 20.1647 37.367 22.701 37.8715C25.2373 38.3761 27.8662 38.1171 30.2554 37.1275C32.6445 36.1379 34.6865 34.462 36.1232 32.3119C37.5599 30.1617 38.3268 27.6338 38.3268 25.0478C38.3268 21.5801 36.9492 18.2544 34.4972 15.8023C32.0452 13.3503 28.7195 11.9728 25.2518 11.9728ZM25.2518 36.4884C22.989 36.4884 20.7771 35.8174 18.8957 34.5603C17.0143 33.3032 15.5479 31.5164 14.682 29.4259C13.8161 27.3354 13.5895 25.0351 14.031 22.8158C14.4724 20.5965 15.562 18.558 17.162 16.958C18.762 15.358 20.8006 14.2684 23.0198 13.827C25.2391 13.3855 27.5394 13.6121 29.6299 14.478C31.7204 15.3439 33.5072 16.8103 34.7643 18.6917C36.0214 20.5731 36.6924 22.785 36.6924 25.0478C36.6924 28.082 35.4871 30.992 33.3415 33.1375C31.196 35.2831 28.286 36.4884 25.2518 36.4884Z" fill="#333333"/>
<path d="M25.4886 17.6275C24.603 17.6128 23.7251 17.7934 22.9172 18.1564C22.1094 18.5194 21.3914 19.0558 20.8142 19.7276C20.7341 19.8019 20.6696 19.8916 20.6247 19.9912C20.5798 20.0909 20.5553 20.1985 20.5527 20.3078C20.5527 20.4087 20.5729 20.5085 20.6122 20.6013C20.6515 20.6942 20.7091 20.7782 20.7815 20.8483C20.854 20.9184 20.9398 20.9733 21.0338 21.0096C21.1279 21.0459 21.2283 21.0629 21.3291 21.0596C21.5449 21.0543 21.7514 20.97 21.9093 20.8227C22.346 20.3108 22.8885 19.8997 23.4993 19.6176C24.1101 19.3354 24.7748 19.189 25.4477 19.1883C27.3763 19.1883 28.5775 20.4304 28.5775 21.9749V22.0158C28.5775 23.8217 27.1393 24.8269 24.8675 24.9985C24.7755 25.002 24.6853 25.025 24.6028 25.0658C24.5203 25.1066 24.4473 25.1644 24.3887 25.2354C24.3301 25.3064 24.2871 25.3889 24.2626 25.4777C24.238 25.5664 24.2325 25.6593 24.2464 25.7503C24.2464 25.7503 24.2464 27.6462 24.2464 27.9976C24.2668 28.1998 24.3617 28.3873 24.5128 28.5233C24.664 28.6593 24.8603 28.7341 25.0636 28.733H25.1535C25.3558 28.7127 25.5432 28.6177 25.6792 28.4666C25.8152 28.3155 25.89 28.1191 25.889 27.9159V26.2324C28.3405 25.8892 30.3263 24.5981 30.3263 21.9177V21.8768C30.3018 19.4253 28.3896 17.6275 25.4886 17.6275Z" fill="#333333"/>
<path d="M25.0713 32.7696C25.6354 32.7696 26.0928 32.3123 26.0928 31.7481C26.0928 31.184 25.6354 30.7266 25.0713 30.7266C24.5071 30.7266 24.0498 31.184 24.0498 31.7481C24.0498 32.3123 24.5071 32.7696 25.0713 32.7696Z" fill="#333333"/>
</g>
<defs>
<clipPath id="clip0_102_8660">
<rect width="29.4188" height="29.4188" fill="white" transform="translate(10.542 10.3377)"/>
</clipPath>
</defs>
</svg>
