<svg width="30" height="30" viewBox="0 0 30 30" fill="none" xmlns="http://www.w3.org/2000/svg">
<path d="M7.81192 2.83157H18.844C19.4941 2.83157 20.1177 3.08986 20.5775 3.54962C21.0372 4.00938 21.2955 4.63294 21.2955 5.28314V7.7347H18.844V5.28314H7.81192V24.8957H18.844V22.4441H21.2955V24.8957C21.2955 25.5458 21.0372 26.1694 20.5775 26.6292C20.1177 27.0889 19.4941 27.3472 18.844 27.3472H7.81192C7.16172 27.3472 6.53816 27.0889 6.0784 26.6292C5.61864 26.1694 5.36035 25.5458 5.36035 24.8957V5.28314C5.36035 4.63294 5.61864 4.00938 6.0784 3.54962C6.53816 3.08986 7.16172 2.83157 7.81192 2.83157V2.83157Z" fill="#828282"/>
<path d="M20.1801 19.4899L21.9084 21.2183L28.0373 15.0894L21.9084 8.96048L20.1801 10.6888L23.3426 13.8636H11.4893V16.3152H23.3426L20.1801 19.4899Z" fill="#828282"/>
</svg>
