<svg width="21" height="17" viewBox="0 0 21 17" fill="none" xmlns="http://www.w3.org/2000/svg">
<path d="M19.9407 0.605481L0.818477 0.605481C0.411671 0.605481 0.0830078 0.934144 0.0830078 1.34095L0.0830078 16.0503C0.0830078 16.4571 0.411671 16.7858 0.818477 16.7858H19.9407C20.3475 16.7858 20.6761 16.4571 20.6761 16.0503V1.34095C20.6761 0.934144 20.3475 0.605481 19.9407 0.605481ZM19.0213 3.15204V15.131H1.73781L1.73781 3.15204L1.10347 2.6579L2.00672 1.49724L2.99041 2.26259H17.771L18.7547 1.49724L19.658 2.6579L19.0213 3.15204V3.15204ZM17.771 2.26029L10.3796 8.00614L2.98811 2.26029L2.00442 1.49494L1.10117 2.6556L1.73552 3.14975L9.58665 9.25414C9.81244 9.42955 10.0902 9.52477 10.3761 9.52477C10.662 9.52477 10.9398 9.42955 11.1656 9.25414L19.0213 3.15204L19.6557 2.6579L18.7524 1.49724L17.771 2.26029Z" fill="#828282"/>
</svg>
