<svg width="31" height="30" viewBox="0 0 31 30" fill="none" xmlns="http://www.w3.org/2000/svg">
<path d="M13.1151 4.36136C13.2982 3.9087 13.6124 3.52104 14.0173 3.24807C14.4222 2.97511 14.8994 2.82928 15.3877 2.82928C15.876 2.82928 16.3532 2.97511 16.7581 3.24807C17.163 3.52104 17.4771 3.9087 17.6603 4.36136C19.4729 4.85987 21.0718 5.93963 22.2113 7.43481C23.3509 8.92999 23.9681 10.7579 23.9682 12.6378V18.3953L26.2138 21.7638C26.337 21.9484 26.4077 22.163 26.4185 22.3846C26.4292 22.6063 26.3796 22.8267 26.2749 23.0224C26.1702 23.2181 26.0144 23.3816 25.824 23.4957C25.6336 23.6097 25.4159 23.6699 25.1939 23.6699H19.635C19.4874 24.6911 18.9769 25.6249 18.1968 26.3003C17.4168 26.9757 16.4195 27.3475 15.3877 27.3475C14.3559 27.3475 13.3586 26.9757 12.5786 26.3003C11.7985 25.6249 11.2879 24.6911 11.1404 23.6699H5.58143C5.35952 23.6699 5.14175 23.6097 4.95137 23.4957C4.76099 23.3816 4.60514 23.2181 4.50045 23.0224C4.39576 22.8267 4.34615 22.6063 4.35691 22.3846C4.36768 22.163 4.43842 21.9484 4.56158 21.7638L6.80722 18.3953V12.6378C6.80722 8.68592 9.47942 5.3567 13.1151 4.36136ZM13.6544 23.6699C13.781 24.0286 14.0158 24.3392 14.3263 24.559C14.6369 24.7787 15.0079 24.8967 15.3883 24.8967C15.7687 24.8967 16.1398 24.7787 16.4503 24.559C16.7608 24.3392 16.9956 24.0286 17.1222 23.6699H13.6532H13.6544ZM15.3877 6.50893C13.7622 6.50893 12.2033 7.15465 11.0539 8.30405C9.9045 9.45344 9.25878 11.0124 9.25878 12.6378V18.7668C9.25883 19.0089 9.18718 19.2456 9.05285 19.4471L7.87242 21.2183H22.9017L21.7213 19.4471C21.5874 19.2455 21.5162 19.0088 21.5166 18.7668V12.6378C21.5166 11.0124 20.8709 9.45344 19.7215 8.30405C18.5721 7.15465 17.0132 6.50893 15.3877 6.50893V6.50893Z" fill="#828282"/>
<circle cx="21.2713" cy="7.24441" r="4.90313" fill="#EB5757"/>
</svg>
