<svg width="33" height="32" viewBox="0 0 33 32" fill="none" xmlns="http://www.w3.org/2000/svg">
<rect x="1.29793" y="0.733412" width="30.3994" height="30.3994" rx="5.39344" stroke="#E0E0E0" stroke-width="0.980626"/>
<path d="M16.4982 16.9136C17.0398 16.9136 17.4788 16.4745 17.4788 15.933C17.4788 15.3914 17.0398 14.9523 16.4982 14.9523C15.9566 14.9523 15.5176 15.3914 15.5176 15.933C15.5176 16.4745 15.9566 16.9136 16.4982 16.9136Z" stroke="#2F80ED" stroke-width="1.96125" stroke-linecap="round" stroke-linejoin="round"/>
<path d="M23.3625 16.9136C23.904 16.9136 24.3431 16.4745 24.3431 15.9329C24.3431 15.3913 23.904 14.9523 23.3625 14.9523C22.8209 14.9523 22.3818 15.3913 22.3818 15.9329C22.3818 16.4745 22.8209 16.9136 23.3625 16.9136Z" stroke="#2F80ED" stroke-width="1.96125" stroke-linecap="round" stroke-linejoin="round"/>
<path d="M9.63395 16.9136C10.1755 16.9136 10.6146 16.4745 10.6146 15.9329C10.6146 15.3913 10.1755 14.9523 9.63395 14.9523C9.09236 14.9523 8.65332 15.3913 8.65332 15.9329C8.65332 16.4745 9.09236 16.9136 9.63395 16.9136Z" stroke="#2F80ED" stroke-width="1.96125" stroke-linecap="round" stroke-linejoin="round"/>
</svg>
