<svg width="25" height="19" viewBox="0 0 25 19" fill="none" xmlns="http://www.w3.org/2000/svg">
<path d="M22.6764 18.4915C22.6764 18.4915 24.1473 18.4915 24.1473 17.0205C24.1473 15.5496 22.6764 11.1368 16.7926 11.1368C10.9089 11.1368 9.43794 15.5496 9.43794 17.0205C9.43794 18.4915 10.9089 18.4915 10.9089 18.4915H22.6764ZM10.9412 17.0205C10.9304 17.019 10.9196 17.0171 10.9089 17.0146C10.9103 16.6263 11.1545 15.4996 12.0268 14.4846C12.8387 13.5329 14.2656 12.6077 16.7926 12.6077C19.3182 12.6077 20.745 13.5344 21.5585 14.4846C22.4307 15.4996 22.6734 16.6278 22.6764 17.0146L22.6646 17.0176C22.6578 17.0187 22.6509 17.0197 22.644 17.0205H10.9412V17.0205ZM16.7926 8.1949C17.5729 8.1949 18.3211 7.88495 18.8729 7.33324C19.4246 6.78153 19.7345 6.03326 19.7345 5.25302C19.7345 4.47279 19.4246 3.72451 18.8729 3.1728C18.3211 2.62109 17.5729 2.31114 16.7926 2.31114C16.0124 2.31114 15.2641 2.62109 14.7124 3.1728C14.1607 3.72451 13.8508 4.47279 13.8508 5.25302C13.8508 6.03326 14.1607 6.78153 14.7124 7.33324C15.2641 7.88495 16.0124 8.1949 16.7926 8.1949ZM21.2054 5.25302C21.2054 5.83252 21.0913 6.40635 20.8695 6.94173C20.6478 7.47712 20.3227 7.96359 19.913 8.37335C19.5032 8.78312 19.0167 9.10817 18.4813 9.32993C17.946 9.5517 17.3721 9.66584 16.7926 9.66584C16.2131 9.66584 15.6393 9.5517 15.1039 9.32993C14.5685 9.10817 14.0821 8.78312 13.6723 8.37335C13.2625 7.96359 12.9375 7.47712 12.7157 6.94173C12.494 6.40635 12.3798 5.83252 12.3798 5.25302C12.3798 4.08267 12.8447 2.96025 13.6723 2.13269C14.4999 1.30513 15.6223 0.840206 16.7926 0.840206C17.963 0.840206 19.0854 1.30513 19.913 2.13269C20.7405 2.96025 21.2054 4.08267 21.2054 5.25302V5.25302ZM10.8147 11.5486C10.2263 11.3634 9.6198 11.2416 9.00548 11.1853C8.6603 11.1525 8.31374 11.1363 7.967 11.1368C2.08324 11.1368 0.612305 15.5496 0.612305 17.0205C0.612305 18.0016 1.10213 18.4915 2.08324 18.4915H8.28472C8.06666 18.0323 7.95791 17.5288 7.967 17.0205C7.967 15.5349 8.52154 14.0169 9.57032 12.7489C9.92776 12.3165 10.344 11.912 10.8147 11.5486ZM7.84932 12.6077C6.97875 13.9158 6.50847 15.4493 6.49606 17.0205H2.08324C2.08324 16.6381 2.32448 15.5055 3.20116 14.4846C4.00282 13.5491 5.3958 12.6371 7.84932 12.6092V12.6077ZM2.81871 5.98849C2.81871 4.81814 3.28363 3.69572 4.1112 2.86816C4.93876 2.0406 6.06118 1.57568 7.23153 1.57568C8.40188 1.57568 9.5243 2.0406 10.3519 2.86816C11.1794 3.69572 11.6443 4.81814 11.6443 5.98849C11.6443 7.15884 11.1794 8.28126 10.3519 9.10882C9.5243 9.93639 8.40188 10.4013 7.23153 10.4013C6.06118 10.4013 4.93876 9.93639 4.1112 9.10882C3.28363 8.28126 2.81871 7.15884 2.81871 5.98849V5.98849ZM7.23153 3.04661C6.45129 3.04661 5.70302 3.35656 5.15131 3.90827C4.5996 4.45998 4.28965 5.20826 4.28965 5.98849C4.28965 6.76873 4.5996 7.517 5.15131 8.06871C5.70302 8.62042 6.45129 8.93037 7.23153 8.93037C8.01176 8.93037 8.76004 8.62042 9.31175 8.06871C9.86346 7.517 10.1734 6.76873 10.1734 5.98849C10.1734 5.20826 9.86346 4.45998 9.31175 3.90827C8.76004 3.35656 8.01176 3.04661 7.23153 3.04661Z" fill="#828282"/>
</svg>
