<svg width="25" height="25" viewBox="0 0 25 25" fill="none" xmlns="http://www.w3.org/2000/svg">
<g clip-path="url(#clip0_198_400)">
<path d="M22.6764 21.5675C22.6764 21.5675 24.1473 21.5675 24.1473 20.0966C24.1473 18.6256 22.6764 14.2128 16.7926 14.2128C10.9089 14.2128 9.43794 18.6256 9.43794 20.0966C9.43794 21.5675 10.9089 21.5675 10.9089 21.5675H22.6764ZM10.9412 20.0966C10.9304 20.0951 10.9196 20.0931 10.9089 20.0907C10.9103 19.7023 11.1545 18.5756 12.0268 17.5607C12.8387 16.609 14.2656 15.6837 16.7926 15.6837C19.3182 15.6837 20.745 16.6104 21.5585 17.5607C22.4307 18.5756 22.6734 19.7038 22.6764 20.0907L22.6646 20.0936C22.6578 20.0948 22.6509 20.0957 22.644 20.0966H10.9412V20.0966ZM16.7926 11.2709C17.5729 11.2709 18.3211 10.961 18.8728 10.4093C19.4246 9.85756 19.7345 9.10928 19.7345 8.32904C19.7345 7.54881 19.4246 6.80053 18.8728 6.24882C18.3211 5.69711 17.5729 5.38717 16.7926 5.38717C16.0124 5.38717 15.2641 5.69711 14.7124 6.24882C14.1607 6.80053 13.8508 7.54881 13.8508 8.32904C13.8508 9.10928 14.1607 9.85756 14.7124 10.4093C15.2641 10.961 16.0124 11.2709 16.7926 11.2709ZM21.2054 8.32904C21.2054 8.90854 21.0913 9.48237 20.8695 10.0178C20.6478 10.5531 20.3227 11.0396 19.913 11.4494C19.5032 11.8591 19.0167 12.1842 18.4813 12.406C17.946 12.6277 17.3721 12.7419 16.7926 12.7419C16.2131 12.7419 15.6393 12.6277 15.1039 12.406C14.5685 12.1842 14.0821 11.8591 13.6723 11.4494C13.2625 11.0396 12.9375 10.5531 12.7157 10.0178C12.494 9.48237 12.3798 8.90854 12.3798 8.32904C12.3798 7.15869 12.8447 6.03628 13.6723 5.20871C14.4999 4.38115 15.6223 3.91623 16.7926 3.91623C17.963 3.91623 19.0854 4.38115 19.913 5.20871C20.7405 6.03628 21.2054 7.15869 21.2054 8.32904V8.32904ZM10.8147 14.6247C10.2263 14.4394 9.61979 14.3176 9.00548 14.2613C8.6603 14.2285 8.31374 14.2123 7.967 14.2128C2.08324 14.2128 0.612305 18.6256 0.612305 20.0966C0.612305 21.0777 1.10213 21.5675 2.08324 21.5675H8.28472C8.06666 21.1083 7.95791 20.6048 7.967 20.0966C7.967 18.6109 8.52154 17.0929 9.57032 15.8249C9.92776 15.3925 10.344 14.988 10.8147 14.6247ZM7.84932 15.6837C6.97875 16.9918 6.50847 18.5253 6.49606 20.0966H2.08324C2.08324 19.7141 2.32448 18.5815 3.20116 17.5607C4.00282 16.6251 5.3958 15.7132 7.84932 15.6852V15.6837ZM2.81871 9.06451C2.81871 7.89416 3.28363 6.77175 4.1112 5.94418C4.93876 5.11662 6.06118 4.6517 7.23153 4.6517C8.40188 4.6517 9.5243 5.11662 10.3519 5.94418C11.1794 6.77175 11.6443 7.89416 11.6443 9.06451C11.6443 10.2349 11.1794 11.3573 10.3519 12.1848C9.5243 13.0124 8.40188 13.4773 7.23153 13.4773C6.06118 13.4773 4.93876 13.0124 4.1112 12.1848C3.28363 11.3573 2.81871 10.2349 2.81871 9.06451V9.06451ZM7.23153 6.12264C6.45129 6.12264 5.70302 6.43258 5.15131 6.98429C4.5996 7.536 4.28965 8.28428 4.28965 9.06451C4.28965 9.84475 4.5996 10.593 5.15131 11.1447C5.70302 11.6964 6.45129 12.0064 7.23153 12.0064C8.01176 12.0064 8.76004 11.6964 9.31175 11.1447C9.86346 10.593 10.1734 9.84475 10.1734 9.06451C10.1734 8.28428 9.86346 7.536 9.31175 6.98429C8.76004 6.43258 8.01176 6.12264 7.23153 6.12264Z" fill="#0000AC"/>
</g>
<defs>
<clipPath id="clip0_198_400">
<rect width="23.535" height="23.535" fill="white" transform="translate(0.612305 0.97435)"/>
</clipPath>
</defs>
</svg>
