<svg width="50" height="50" viewBox="0 0 50 50" fill="none" xmlns="http://www.w3.org/2000/svg">
<rect x="0.5" y="0.500641" width="49" height="49" rx="4.5" stroke="#E0E0E0"/>
<path d="M32.502 31.5622H33.9082C34.5292 31.5603 35.1243 31.3128 35.5634 30.8737C36.0026 30.4345 36.2501 29.8395 36.252 29.2184V19.8434C36.2501 19.2224 36.0026 18.6273 35.5634 18.1882C35.1243 17.7491 34.5292 17.5015 33.9082 17.4997H16.0957C15.4747 17.5015 14.8796 17.7491 14.4405 18.1882C14.0013 18.6273 13.7538 19.2224 13.752 19.8434V29.2184C13.7538 29.8395 14.0013 30.4345 14.4405 30.8737C14.8796 31.3128 15.4747 31.5603 16.0957 31.5622H17.502" stroke="#333333" stroke-width="1.5" stroke-linejoin="round"/>
<path d="M31.077 24.0627H18.927C18.1399 24.0627 17.502 24.7007 17.502 25.4877V34.8252C17.502 35.6122 18.1399 36.2502 18.927 36.2502H31.077C31.864 36.2502 32.502 35.6122 32.502 34.8252V25.4877C32.502 24.7007 31.864 24.0627 31.077 24.0627Z" stroke="#333333" stroke-width="1.5" stroke-linejoin="round"/>
<path d="M32.502 17.4993V16.093C32.5001 15.472 32.2526 14.877 31.8134 14.4378C31.3743 13.9987 30.7792 13.7512 30.1582 13.7493H19.8457C19.2247 13.7512 18.6296 13.9987 18.1905 14.4378C17.7513 14.877 17.5038 15.472 17.502 16.093V17.4993" stroke="#333333" stroke-width="1.5" stroke-linejoin="round"/>
<path d="M32.9688 22.1874C33.7454 22.1874 34.375 21.5578 34.375 20.7812C34.375 20.0045 33.7454 19.3749 32.9688 19.3749C32.1921 19.3749 31.5625 20.0045 31.5625 20.7812C31.5625 21.5578 32.1921 22.1874 32.9688 22.1874Z" fill="#333333"/>
</svg>
