<svg width="50" height="50" viewBox="0 0 50 50" fill="none" xmlns="http://www.w3.org/2000/svg">
<rect x="1.36531" y="1.23702" width="48.0507" height="48.0507" rx="4.41282" stroke="#E0E0E0" stroke-width="0.980626"/>
<g clip-path="url(#clip0_102_8520)">
<path d="M25.3904 12.1878C22.8045 12.1878 20.2765 12.9547 18.1264 14.3914C15.9762 15.8281 14.3003 17.8701 13.3107 20.2593C12.3211 22.6484 12.0622 25.2773 12.5667 27.8137C13.0712 30.35 14.3164 32.6797 16.145 34.5083C17.9736 36.3368 20.3033 37.5821 22.8396 38.0866C25.3759 38.5911 28.0049 38.3322 30.394 37.3426C32.7832 36.353 34.8252 34.6771 36.2619 32.5269C37.6986 30.3768 38.4655 27.8488 38.4655 25.2628C38.4655 21.7951 37.0879 18.4695 34.6359 16.0174C32.1838 13.5654 28.8582 12.1878 25.3904 12.1878ZM25.3904 36.7035C23.1277 36.7035 20.9158 36.0325 19.0344 34.7754C17.153 33.5183 15.6866 31.7315 14.8207 29.641C13.9548 27.5505 13.7282 25.2502 14.1696 23.0309C14.6111 20.8116 15.7007 18.7731 17.3007 17.1731C18.9007 15.5731 20.9392 14.4835 23.1585 14.042C25.3778 13.6006 27.6781 13.8272 29.7686 14.6931C31.8591 15.559 33.6459 17.0254 34.903 18.9068C36.1601 20.7882 36.8311 23.0001 36.8311 25.2628C36.8311 28.2971 35.6257 31.2071 33.4802 33.3526C31.3347 35.4981 28.4247 36.7035 25.3904 36.7035Z" fill="#333333"/>
<path d="M25.6282 17.8425C24.7427 17.8279 23.8648 18.0085 23.0569 18.3715C22.249 18.7344 21.531 19.2709 20.9539 19.9427C20.8737 20.017 20.8092 20.1066 20.7643 20.2063C20.7194 20.306 20.6949 20.4136 20.6924 20.5229C20.6923 20.6237 20.7126 20.7235 20.7519 20.8164C20.7912 20.9092 20.8488 20.9932 20.9212 21.0634C20.9936 21.1335 21.0794 21.1884 21.1735 21.2247C21.2675 21.261 21.3679 21.278 21.4687 21.2747C21.6846 21.2694 21.891 21.1851 22.0489 21.0377C22.4857 20.5259 23.0281 20.1148 23.639 19.8327C24.2498 19.5505 24.9145 19.4041 25.5873 19.4034C27.5159 19.4034 28.7172 20.6455 28.7172 22.19V22.2308C28.7172 24.0368 27.2789 25.042 25.0071 25.2136C24.9151 25.2171 24.8249 25.2401 24.7424 25.2809C24.6599 25.3217 24.587 25.3795 24.5283 25.4505C24.4697 25.5214 24.4267 25.604 24.4022 25.6927C24.3777 25.7815 24.3722 25.8744 24.3861 25.9654C24.3861 25.9654 24.3861 27.8613 24.3861 28.2126C24.4064 28.4149 24.5014 28.6024 24.6525 28.7383C24.8036 28.8743 25 28.9491 25.2033 28.9481H25.2932C25.4954 28.9278 25.6829 28.8328 25.8189 28.6817C25.9548 28.5306 26.0296 28.3342 26.0286 28.1309V26.4475C28.4802 26.1043 30.466 24.8131 30.466 22.1328V22.0919C30.4414 19.6403 28.5292 17.8425 25.6282 17.8425Z" fill="#333333"/>
<path d="M25.2109 32.9834C25.7751 32.9834 26.2324 32.5261 26.2324 31.962C26.2324 31.3978 25.7751 30.9405 25.2109 30.9405C24.6468 30.9405 24.1895 31.3978 24.1895 31.962C24.1895 32.5261 24.6468 32.9834 25.2109 32.9834Z" fill="#333333"/>
</g>
<defs>
<clipPath id="clip0_102_8520">
<rect width="29.4188" height="29.4188" fill="white" transform="translate(10.6816 10.5533)"/>
</clipPath>
</defs>
</svg>
