<svg width="24" height="25" viewBox="0 0 24 25" fill="none" xmlns="http://www.w3.org/2000/svg">
<path d="M19 4.50049H17V3.50049C17 3.23527 16.8946 2.98092 16.7071 2.79338C16.5196 2.60585 16.2652 2.50049 16 2.50049C15.7348 2.50049 15.4804 2.60585 15.2929 2.79338C15.1054 2.98092 15 3.23527 15 3.50049V4.50049H9V3.50049C9 3.23527 8.89464 2.98092 8.70711 2.79338C8.51957 2.60585 8.26522 2.50049 8 2.50049C7.73478 2.50049 7.48043 2.60585 7.29289 2.79338C7.10536 2.98092 7 3.23527 7 3.50049V4.50049H5C4.20435 4.50049 3.44129 4.81656 2.87868 5.37917C2.31607 5.94178 2 6.70484 2 7.50049V19.5005C2 20.2961 2.31607 21.0592 2.87868 21.6218C3.44129 22.1844 4.20435 22.5005 5 22.5005H19C19.7956 22.5005 20.5587 22.1844 21.1213 21.6218C21.6839 21.0592 22 20.2961 22 19.5005V7.50049C22 6.70484 21.6839 5.94178 21.1213 5.37917C20.5587 4.81656 19.7956 4.50049 19 4.50049ZM20 19.5005C20 19.7657 19.8946 20.0201 19.7071 20.2076C19.5196 20.3951 19.2652 20.5005 19 20.5005H5C4.73478 20.5005 4.48043 20.3951 4.29289 20.2076C4.10536 20.0201 4 19.7657 4 19.5005V12.5005H20V19.5005ZM20 10.5005H4V7.50049C4 7.23527 4.10536 6.98092 4.29289 6.79338C4.48043 6.60585 4.73478 6.50049 5 6.50049H7V7.50049C7 7.7657 7.10536 8.02006 7.29289 8.20759C7.48043 8.39513 7.73478 8.50049 8 8.50049C8.26522 8.50049 8.51957 8.39513 8.70711 8.20759C8.89464 8.02006 9 7.7657 9 7.50049V6.50049H15V7.50049C15 7.7657 15.1054 8.02006 15.2929 8.20759C15.4804 8.39513 15.7348 8.50049 16 8.50049C16.2652 8.50049 16.5196 8.39513 16.7071 8.20759C16.8946 8.02006 17 7.7657 17 7.50049V6.50049H19C19.2652 6.50049 19.5196 6.60585 19.7071 6.79338C19.8946 6.98092 20 7.23527 20 7.50049V10.5005Z" fill="#0000AC"/>
</svg>
