<svg width="50" height="50" viewBox="0 0 50 50" fill="none" xmlns="http://www.w3.org/2000/svg">
<rect x="1.17" y="1.02197" width="48.0507" height="48.0507" rx="4.41282" stroke="#E0E0E0" stroke-width="0.980626"/>
<path d="M35.4931 35.3433L30.3608 30.2019M33.2049 23.3307C33.2049 25.9098 32.1804 28.3833 30.3567 30.207C28.533 32.0307 26.0595 33.0552 23.4804 33.0552C20.9013 33.0552 18.4278 32.0307 16.6041 30.207C14.7804 28.3833 13.7559 25.9098 13.7559 23.3307C13.7559 20.7516 14.7804 18.2781 16.6041 16.4544C18.4278 14.6307 20.9013 13.6061 23.4804 13.6061C26.0595 13.6061 28.533 14.6307 30.3567 16.4544C32.1804 18.2781 33.2049 20.7516 33.2049 23.3307V23.3307Z" stroke="#333333" stroke-width="2.45156" stroke-linecap="round"/>
</svg>
