<svg width="25" height="24" viewBox="0 0 25 24" fill="none" xmlns="http://www.w3.org/2000/svg">
<path d="M21.867 14.7052L20.3616 13.4182C20.4328 12.9815 20.4696 12.5356 20.4696 12.0897C20.4696 11.6438 20.4328 11.198 20.3616 10.7613L21.867 9.47421C21.9806 9.37701 22.0618 9.24754 22.1 9.10303C22.1382 8.95851 22.1315 8.8058 22.0807 8.6652L22.0601 8.60544C21.6456 7.44714 21.025 6.37337 20.2283 5.43603L20.1869 5.38776C20.0903 5.27411 19.9614 5.19242 19.8174 5.15344C19.6734 5.11446 19.521 5.12004 19.3802 5.16942L17.5116 5.83364C16.8221 5.26825 16.0522 4.82237 15.2202 4.5098L14.8594 2.55621C14.8321 2.40921 14.7608 2.27398 14.6549 2.16847C14.549 2.06297 14.4135 1.99219 14.2664 1.96553L14.2043 1.95404C13.0069 1.738 11.7474 1.738 10.55 1.95404L10.4879 1.96553C10.3408 1.99219 10.2053 2.06297 10.0994 2.16847C9.99347 2.27398 9.92217 2.40921 9.89494 2.55621L9.53181 4.51899C8.70645 4.83163 7.93783 5.27727 7.25645 5.83824L5.37411 5.16942C5.23337 5.11964 5.08082 5.11387 4.93672 5.15287C4.79263 5.19187 4.66381 5.2738 4.56739 5.38776L4.52602 5.43603C3.73021 6.37404 3.10973 7.44762 2.69424 8.60544L2.67356 8.6652C2.57013 8.95249 2.65517 9.27426 2.8873 9.47421L4.4111 10.7751C4.33985 11.2072 4.30538 11.6484 4.30538 12.0874C4.30538 12.5287 4.33985 12.97 4.4111 13.3998L2.8873 14.7006C2.77375 14.7978 2.69249 14.9273 2.6543 15.0718C2.61612 15.2163 2.62284 15.3691 2.67356 15.5097L2.69424 15.5694C3.11024 16.7278 3.7262 17.7965 4.52602 18.7388L4.56739 18.7871C4.66404 18.9007 4.79287 18.9824 4.93688 19.0214C5.08089 19.0604 5.23333 19.0548 5.37411 19.0054L7.25645 18.3366C7.94135 18.8997 8.7067 19.3456 9.53181 19.6559L9.89494 21.6186C9.92217 21.7656 9.99347 21.9009 10.0994 22.0064C10.2053 22.1119 10.3408 22.1827 10.4879 22.2093L10.55 22.2208C11.7584 22.438 12.9959 22.438 14.2043 22.2208L14.2664 22.2093C14.4135 22.1827 14.549 22.1119 14.6549 22.0064C14.7608 21.9009 14.8321 21.7656 14.8594 21.6186L15.2202 19.6651C16.0519 19.3533 16.8262 18.906 17.5116 18.3412L19.3802 19.0054C19.5209 19.0552 19.6735 19.061 19.8176 19.022C19.9617 18.983 20.0905 18.9011 20.1869 18.7871L20.2283 18.7388C21.0281 17.7942 21.6441 16.7278 22.0601 15.5694L22.0807 15.5097C22.1842 15.227 22.0991 14.9052 21.867 14.7052V14.7052ZM18.7298 11.0325C18.7872 11.3795 18.8171 11.7358 18.8171 12.092C18.8171 12.4483 18.7872 12.8045 18.7298 13.1516L18.5781 14.0732L20.2949 15.5418C20.0347 16.1414 19.7061 16.7091 19.3158 17.2334L17.183 16.4773L16.4613 17.0702C15.912 17.5207 15.3006 17.8747 14.6387 18.1229L13.7631 18.4515L13.3516 20.6809C12.7025 20.7545 12.0472 20.7545 11.3981 20.6809L10.9867 18.4469L10.1179 18.1137C9.46286 17.8655 8.8538 17.5115 8.30909 17.0633L7.58741 16.4681L5.44076 17.2311C5.05004 16.7048 4.72368 16.1371 4.46167 15.5395L6.19691 14.0571L6.04752 13.1378C5.99236 12.7953 5.96248 12.4414 5.96248 12.092C5.96248 11.7404 5.99006 11.3887 6.04752 11.0463L6.19691 10.1269L4.46167 8.64451C4.72138 8.04464 5.05004 7.47925 5.44076 6.95293L7.58741 7.71598L8.30909 7.12071C8.8538 6.67254 9.46286 6.31859 10.1179 6.07037L10.989 5.74171L11.4004 3.50772C12.0462 3.43417 12.7058 3.43417 13.3539 3.50772L13.7654 5.73711L14.641 6.06577C15.3006 6.31399 15.9143 6.66794 16.4636 7.11841L17.1853 7.71139L19.3181 6.95523C19.7089 7.48155 20.0352 8.04924 20.2972 8.64681L18.5804 10.1155L18.7298 11.0325ZM12.3795 7.81711C10.1455 7.81711 8.33437 9.6282 8.33437 11.8622C8.33437 14.0962 10.1455 15.9073 12.3795 15.9073C14.6134 15.9073 16.4245 14.0962 16.4245 11.8622C16.4245 9.6282 14.6134 7.81711 12.3795 7.81711ZM14.1997 13.6825C13.961 13.9219 13.6773 14.1118 13.3649 14.2412C13.0525 14.3705 12.7176 14.4369 12.3795 14.4363C11.6922 14.4363 11.0464 14.1674 10.5592 13.6825C10.3197 13.4437 10.1299 13.16 10.0005 12.8476C9.87111 12.5352 9.80478 12.2003 9.80531 11.8622C9.80531 11.175 10.0742 10.5292 10.5592 10.0419C11.0464 9.55465 11.6922 9.28805 12.3795 9.28805C13.0667 9.28805 13.7125 9.55465 14.1997 10.0419C14.4392 10.2807 14.629 10.5644 14.7584 10.8768C14.8878 11.1892 14.9541 11.5241 14.9536 11.8622C14.9536 12.5494 14.6847 13.1952 14.1997 13.6825Z" fill="#828282"/>
</svg>
