<svg width="25" height="24" viewBox="0 0 25 24" fill="none" xmlns="http://www.w3.org/2000/svg">
<path d="M21.867 14.705L20.3616 13.4179C20.4328 12.9812 20.4696 12.5353 20.4696 12.0895C20.4696 11.6436 20.4328 11.1977 20.3616 10.761L21.867 9.47394C21.9806 9.37673 22.0618 9.24727 22.1 9.10275C22.1382 8.95824 22.1315 8.80553 22.0807 8.66492L22.0601 8.60517C21.6456 7.44686 21.025 6.3731 20.2283 5.43575L20.1869 5.38749C20.0903 5.27384 19.9614 5.19214 19.8174 5.15317C19.6734 5.11419 19.521 5.11976 19.3802 5.16915L17.5116 5.83337C16.8221 5.26797 16.0522 4.8221 15.2202 4.50952L14.8594 2.55593C14.8321 2.40893 14.7608 2.2737 14.6549 2.1682C14.549 2.06269 14.4135 1.99191 14.2664 1.96526L14.2043 1.95377C13.0069 1.73772 11.7474 1.73772 10.55 1.95377L10.4879 1.96526C10.3408 1.99191 10.2053 2.06269 10.0994 2.1682C9.99347 2.2737 9.92217 2.40893 9.89494 2.55593L9.53181 4.51871C8.70645 4.83135 7.93783 5.277 7.25645 5.83796L5.37411 5.16915C5.23337 5.11937 5.08082 5.1136 4.93672 5.1526C4.79263 5.1916 4.66381 5.27352 4.56739 5.38749L4.52602 5.43575C3.73021 6.37376 3.10973 7.44735 2.69424 8.60517L2.67356 8.66492C2.57013 8.95221 2.65517 9.27398 2.8873 9.47394L4.4111 10.7748C4.33985 11.2069 4.30538 11.6482 4.30538 12.0872C4.30538 12.5284 4.33985 12.9697 4.4111 13.3995L2.8873 14.7004C2.77375 14.7976 2.69249 14.927 2.6543 15.0716C2.61612 15.2161 2.62284 15.3688 2.67356 15.5094L2.69424 15.5691C3.11024 16.7275 3.7262 17.7962 4.52602 18.7386L4.56739 18.7868C4.66404 18.9005 4.79287 18.9822 4.93688 19.0211C5.08089 19.0601 5.23333 19.0545 5.37411 19.0052L7.25645 18.3363C7.94135 18.8994 8.7067 19.3453 9.53181 19.6556L9.89494 21.6184C9.92217 21.7654 9.99347 21.9006 10.0994 22.0061C10.2053 22.1116 10.3408 22.1824 10.4879 22.209L10.55 22.2205C11.7584 22.4377 12.9959 22.4377 14.2043 22.2205L14.2664 22.209C14.4135 22.1824 14.549 22.1116 14.6549 22.0061C14.7608 21.9006 14.8321 21.7654 14.8594 21.6184L15.2202 19.6648C16.0519 19.353 16.8262 18.9057 17.5116 18.3409L19.3802 19.0052C19.5209 19.0549 19.6735 19.0607 19.8176 19.0217C19.9617 18.9827 20.0905 18.9008 20.1869 18.7868L20.2283 18.7386C21.0281 17.7939 21.6441 16.7275 22.0601 15.5691L22.0807 15.5094C22.1842 15.2267 22.0991 14.9049 21.867 14.705V14.705ZM18.7298 11.0322C18.7872 11.3793 18.8171 11.7355 18.8171 12.0917C18.8171 12.448 18.7872 12.8042 18.7298 13.1513L18.5781 14.0729L20.2949 15.5416C20.0347 16.1412 19.7061 16.7088 19.3158 17.2331L17.183 16.477L16.4613 17.07C15.912 17.5204 15.3006 17.8744 14.6387 18.1226L13.7631 18.4513L13.3516 20.6807C12.7025 20.7542 12.0472 20.7542 11.3981 20.6807L10.9867 18.4467L10.1179 18.1134C9.46286 17.8652 8.8538 17.5112 8.30909 17.0631L7.58741 16.4678L5.44076 17.2308C5.05004 16.7045 4.72368 16.1368 4.46167 15.5393L6.19691 14.0568L6.04752 13.1375C5.99236 12.795 5.96248 12.4411 5.96248 12.0917C5.96248 11.7401 5.99006 11.3885 6.04752 11.046L6.19691 10.1267L4.46167 8.64424C4.72138 8.04437 5.05004 7.47898 5.44076 6.95266L7.58741 7.71571L8.30909 7.12044C8.8538 6.67226 9.46286 6.31832 10.1179 6.0701L10.989 5.74143L11.4004 3.50744C12.0462 3.4339 12.7058 3.4339 13.3539 3.50744L13.7654 5.73684L14.641 6.0655C15.3006 6.31372 15.9143 6.66766 16.4636 7.11814L17.1853 7.71111L19.3181 6.95496C19.7089 7.48128 20.0352 8.04897 20.2972 8.64654L18.5804 10.1152L18.7298 11.0322ZM12.3795 7.81683C10.1455 7.81683 8.33437 9.62793 8.33437 11.8619C8.33437 14.0959 10.1455 15.907 12.3795 15.907C14.6134 15.907 16.4245 14.0959 16.4245 11.8619C16.4245 9.62793 14.6134 7.81683 12.3795 7.81683ZM14.1997 13.6822C13.961 13.9216 13.6773 14.1115 13.3649 14.2409C13.0525 14.3703 12.7176 14.4366 12.3795 14.4361C11.6922 14.4361 11.0464 14.1672 10.5592 13.6822C10.3197 13.4435 10.1299 13.1597 10.0005 12.8473C9.87111 12.5349 9.80478 12.2 9.80531 11.8619C9.80531 11.1747 10.0742 10.5289 10.5592 10.0416C11.0464 9.55438 11.6922 9.28777 12.3795 9.28777C13.0667 9.28777 13.7125 9.55438 14.1997 10.0416C14.4392 10.2804 14.629 10.5641 14.7584 10.8765C14.8878 11.1889 14.9541 11.5238 14.9536 11.8619C14.9536 12.5491 14.6847 13.195 14.1997 13.6822Z" fill="#0000AC"/>
</svg>
