<svg width="20" height="23" viewBox="0 0 20 23" fill="none" xmlns="http://www.w3.org/2000/svg">
<path d="M9.39985 22.3353V18.805C4.48692 18.5501 0.574219 14.4707 0.574219 9.49888C0.574219 4.3604 4.75168 0.182938 9.89016 0.182938C15.0286 0.182938 19.2061 4.3604 19.2061 9.49888C19.2061 14.353 15.8328 19.2365 10.8021 21.6586L9.39985 22.3353ZM9.89016 2.14419C5.83037 2.14419 2.53547 5.43909 2.53547 9.49888C2.53547 13.5587 5.83037 16.8536 9.89016 16.8536H11.3611V19.109C14.9306 16.8536 17.2449 13.1468 17.2449 9.49888C17.2449 5.43909 13.95 2.14419 9.89016 2.14419ZM8.90954 13.4214H10.8708V15.3826H8.90954V13.4214ZM10.8708 11.9504H8.90954C8.90954 8.76341 11.8514 9.00857 11.8514 7.04732C11.8514 5.96863 10.9689 5.08607 9.89016 5.08607C8.81147 5.08607 7.92891 5.96863 7.92891 7.04732H5.96766C5.96766 4.88013 7.72298 3.12481 9.89016 3.12481C12.0573 3.12481 13.8127 4.88013 13.8127 7.04732C13.8127 9.49888 10.8708 9.74404 10.8708 11.9504Z" fill="#828282"/>
</svg>
