<svg width="25" height="24" viewBox="0 0 25 24" fill="none" xmlns="http://www.w3.org/2000/svg">
<path d="M5.51594 21.5943H19.2447C20.3263 21.5943 21.2059 20.7147 21.2059 19.6331V4.92369C21.2059 3.84206 20.3263 2.96244 19.2447 2.96244H17.2834C17.2834 2.70236 17.1801 2.45293 16.9962 2.26903C16.8123 2.08513 16.5629 1.98181 16.3028 1.98181L8.45782 1.98181C8.19774 1.98181 7.94831 2.08513 7.76441 2.26903C7.58051 2.45293 7.47719 2.70236 7.47719 2.96244H5.51594C4.43431 2.96244 3.55469 3.84206 3.55469 4.92369L3.55469 19.6331C3.55469 20.7147 4.43431 21.5943 5.51594 21.5943ZM5.51594 4.92369H7.47719V6.88494H17.2834V4.92369H19.2447V19.6331H5.51594V4.92369Z" fill="#828282"/>
<path d="M11.3997 13.3433L9.64149 11.5851L8.25488 12.9717L11.3997 16.1166L16.5059 11.0104L15.1193 9.62383L11.3997 13.3433Z" fill="#828282"/>
</svg>
